<svg width="256" height="143" viewBox="0 0 256 143" fill="none"
  xmlns="http://www.w3.org/2000/svg"
  xmlns:xlink="http://www.w3.org/1999/xlink" aria-hidden="true" preserveAspectRatio="xMidYMid meet" role="img">

  <path id="mouth" d="M5.31318 106.909C5.20398 106.607 4.9146 106.406 4.59246 106.409C4.25667 106.409 3.91541 106.444 3.58235 106.39C2.05355 106.129 1.68227 104.233 1.32737 102.986C1.01069 101.875 0.740426 100.754 0.568435 99.6129C0.00878439 95.8482 -0.0567417 91.9803 0.0333484 88.1722C0.123439 84.4157 0.718586 80.6973 1.25094 76.9842C1.9662 72.0027 2.57499 67.0158 3.62604 62.075C5.50702 53.2311 8.35714 44.5094 12.9545 36.6705C17.5054 28.9103 23.7489 22.2774 31.24 17.2551C49.127 5.26314 71.5349 1.54195 92.6706 0.390287C111.909 -0.658164 131.183 0.564122 150.353 2.18026C171.923 3.89146 188.294 16.9102 195.551 37.0399C202.87 57.3462 201.917 80.3469 197.948 101.245C195.906 111.991 194.371 124.045 187.407 132.941C179.64 142.868 161.472 146.367 150.852 139.234C144.467 134.945 140.547 127.856 137.407 121.057C131.966 109.272 128.466 96.3969 120.421 85.9667C115.777 79.9476 109.591 75.3871 102.073 73.6895C101.996 73.6732 101.914 73.665 101.835 73.6705C74.5488 75.2866 76.397 111.681 60.7623 127.128C45.9411 142.662 15.6326 135.1 5.31318 106.909ZM36.7792 127.916C45.0156 129.847 51.7942 125.778 55.5316 118.403C58.2234 113.088 59.1598 107.093 60.8087 101.37C65.0238 86.7408 75.3105 72.8013 90.0853 68.8655C99.9379 66.2417 110.765 68.4418 119.408 73.8307C128.051 79.2197 134.584 87.5855 138.745 96.8505C141.772 103.6 143.61 110.831 146.676 117.564C149.739 124.298 154.336 130.749 161.065 133.875C162.761 134.663 164.644 135.23 166.493 134.945C168.087 134.698 169.52 133.84 170.822 132.892C179.785 126.373 184.322 115.307 186.149 104.41C187.975 93.5123 187.525 82.365 188.783 71.3889C189.777 62.7242 191.838 54.1356 191.671 45.4166C191.505 36.6976 188.693 27.4789 181.792 22.1035C176.741 18.1678 170.2 16.7771 163.891 15.6145C138.849 10.9997 113.277 8.20749 87.904 10.394C75.4879 11.4642 63.0555 13.7594 51.6359 18.7273C40.2163 23.6952 29.815 31.4907 23.1428 41.9643C16.9457 51.691 14.2212 63.2267 12.9244 74.67C11.7724 84.8422 11.7014 95.3593 14.9856 105.059C18.5455 115.573 26.2523 124.083 36.7792 127.916Z" fill="#020102" />
  <path id="lip" d="M41.5237 107C39.822 106.616 39.9742 103.807 39.088 102.683C38.5335 98.2151 37.9789 93.7472 37.4216 89.2794C37.0166 86.0286 35.2877 86.7906 33.0233 85.4063C32.9037 85.3323 32.7488 85.368 32.6618 85.4831C32.5829 85.5872 32.4878 85.6722 32.3002 85.6777C32.2866 85.6777 32.273 85.6722 32.2622 85.6613C31.868 85.1542 30.8106 83.8412 30.3484 83.9947C29.7015 84.2085 29.9815 85.9079 29.0409 85.727C28.9349 84.3757 29.0436 82.8517 29.2665 81.5059C29.9108 77.6082 30.6013 73.7296 31.8898 69.9608C39.3734 48.0683 62.485 34.3057 84.0716 30.1832C112.435 24.767 147.991 27.963 162.564 56.6861C166.256 63.9662 168.491 71.8904 170.048 79.886C170.858 84.0386 172.788 90.5731 171.649 94.9451C171.048 97.2311 171.331 97.1296 169.031 97.4805C167.039 97.7847 162.76 97.2338 161.086 98.2562C159.735 91.8614 160.17 85.1898 158.664 78.7183C157.098 71.9864 154.744 65.3449 151.215 59.3914C144.765 48.5096 133.26 42.7782 121.218 40.6128C108.692 38.3597 96.9458 40.2592 84.5255 41.4954C84.0743 41.5392 83.6176 41.5667 83.1636 41.5338C81.4565 41.4104 80.361 40.5963 78.5207 41.1089C76.6559 41.6297 63.412 44.7243 64.6434 47.4187C64.9043 47.9888 63.6186 48.633 63.2652 48.9071C55.1046 55.1977 44.957 62.9219 42.5811 73.5542C40.159 84.4059 40.5478 96.0058 41.5237 107Z" fill="#DD0128"/>
</svg>
