<svg width="92" height="145" viewBox="0 0 92 145" fill="none"
  xmlns="http://www.w3.org/2000/svg"
  xmlns:xlink="http://www.w3.org/1999/xlink" aria-hidden="true" preserveAspectRatio="xMidYMid meet" role="img">

<path d="M4.92564 81.4994C10.43 60.2127 -7.17746 72.1139 2.92992 48.0857C5.79475 39.7 15.5158 36.1199 18.606 27.8955C21.2777 20.4452 14.0673 9.99529 23.885 5.80245C64.2501 -10.2594 69.0785 6.67327 85.5915 37.3133C97.3727 48.763 91.5143 64.7603 83.7889 76.597C79.3146 83.0153 89.7761 101.206 78.8318 100.786C72.5227 106.592 70.4626 102.593 66.6965 110.914C57.2329 117.622 38.177 116.623 34.3143 104.496C27.1039 106.463 23.0481 99.6899 19.5073 95.8196C12.6188 94.1747 3.70245 90.1109 4.92564 81.4994ZM26.8786 92.7233C23.1125 99.2706 29.6469 103.076 35.0224 99.1738C35.1834 93.6264 36.3744 87.2726 42.1362 92.4653C42.4903 98.2385 38.0804 107.592 44.647 110.527C52.0505 110.043 61.9003 112.72 66.2781 105.044C66.8253 99.9479 68.5635 85.7567 69.8189 100.303C80.7953 99.7866 75.7095 85.8213 76.482 78.3064C77.4155 68.1791 88.2954 61.0512 86.2675 50.2788C86.8147 41.7319 79.5078 36.9585 75.5163 30.7982C74.4219 15.3815 63.2523 -2.22846 45.9024 2.7707C46.353 3.18998 48.3809 4.12531 47.1577 4.73811C8.53082 3.31899 30.0009 18.2197 20.0545 34.0235C18.7991 38.8292 7.75828 44.0218 11.621 48.4727C11.6854 49.7951 7.9836 51.1174 8.46644 53.5686C11.0738 64.857 13.2304 74.1135 11.3635 85.9503C11.4922 91.3042 17.0287 91.6267 20.473 94.2715C22.2756 94.1102 21.5996 90.0464 22.7906 88.6272C23.9816 85.3697 31.4495 92.5298 26.8786 92.7233ZM2.51145 61.1157C2.99429 62.5349 4.57156 65.8246 6.05225 65.6311C5.66599 64.1152 3.50932 57.1487 2.51145 61.1157Z" fill="black"/>
<path d="M24.561 134.942C39.5611 141.296 23.1447 105.592 30.9666 111.107C30.0009 116.784 37.7907 137.296 32.4795 138.361C29.6147 137.458 24.6576 137.458 22.7262 139.49C18.6382 137.555 20.1189 133.91 24.561 134.942Z" fill="black"/>
<path d="M49.5719 141.264C70.0764 141.941 57.2007 140.49 59.3252 119.461C63.0592 125.524 60.8381 136.684 63.7673 144.231C61.836 145.585 57.4904 143.328 54.6256 143.973C51.2136 140.683 49.0891 147.94 47.7049 144.586C43.8423 141.747 47.6406 141.36 49.5719 141.264Z" fill="black"/>
<path d="M57.2329 21.8643C57.9411 26.8634 62.2222 39.7 59.7115 47.6341C57.2651 48.0212 57.2651 52.1172 54.529 54.6652C54.4968 53.8266 56.3638 49.537 54.3681 52.1172C50.8595 65.8891 40.6877 55.6328 41.9431 45.7957C42.0719 44.6024 41.8143 41.8286 40.7199 44.1508C26.2348 52.6655 31.707 24.2832 35.0868 16.9296C34.6684 12.9625 39.368 16.6071 40.6555 17.8004C44.5504 19.4776 41.4603 26.2829 43.4882 28.4761C45.1942 17.4779 49.9582 20.8644 51.4711 14.2204C54.69 14.9622 58.8746 18.1875 57.2329 21.8643ZM54.6578 30.379C52.147 4.28657 42.5547 50.0853 46.514 55.9553C58.0377 57.3744 55.1084 20.5742 54.6578 30.379ZM35.6662 35.8297C35.8272 51.5367 41.7822 29.6694 40.6877 24.6057C39.368 11.9627 34.7649 31.1853 35.6662 35.8297Z" fill="black"/>
<path d="M29.6791 70.469C35.6019 74.7586 30.0331 93.6909 41.6212 78.8869C47.4153 73.3395 34.8615 77.7903 35.6019 72.3074C46.514 75.7907 48.0268 64.3732 42.265 66.2762C31.3207 66.3407 37.8551 66.2762 28.7134 70.1787C27.7799 70.0497 23.7885 69.1144 25.3657 68.0178C29.4215 67.6308 30.9344 62.5348 34.7971 61.8575C44.0354 65.8569 44.0032 58.213 50.3445 70.8883C53.2737 76.1132 46.6427 80.8544 42.6835 86.7243C33.6061 94.1102 22.7906 77.6291 29.6791 70.469Z" fill="black"/>
<path d="M64.8295 80.2093C66.1493 76.4357 69.4326 72.2106 72.5871 68.4693C71.879 63.1154 60.7737 56.7616 65.4411 50.5691C66.8575 56.7616 71.9755 63.5024 75.3554 69.0499C69.1751 72.8234 69.9798 94.8197 64.8295 80.2093Z" fill="black"/>
</svg>
